<svg width="480" height="480" viewBox="0 0 480 480" fill="none" xmlns="http://www.w3.org/2000/svg">
<path d="M100 380C100 385.304 102.107 390.391 105.858 394.142C109.609 397.893 114.696 400 120 400H360C365.304 400 370.391 397.893 374.142 394.142C377.893 390.391 380 385.304 380 380C380 375.8 378.6 371.8 376.4 368.6L260 167V80H220V167L103.6 368.6C101.4 371.8 100 375.8 100 380ZM120 440C104.087 440 88.8258 433.679 77.5736 422.426C66.3214 411.174 60 395.913 60 380C60 368 63.6 356.8 70 347.4L180 156.2V120C174.696 120 169.609 117.893 165.858 114.142C162.107 110.391 160 105.304 160 100V80C160 69.3913 164.214 59.2172 171.716 51.7157C179.217 44.2143 189.391 40 200 40H280C290.609 40 300.783 44.2143 308.284 51.7157C315.786 59.2172 320 69.3913 320 80V100C320 105.304 317.893 110.391 314.142 114.142C310.391 117.893 305.304 120 300 120V156.2L410 347.4C416.4 356.8 420 368 420 380C420 395.913 413.679 411.174 402.426 422.426C391.174 433.679 375.913 440 360 440H120Z" fill="#88C0D0"/>
<g filter="url(#filter0_d_731_7)">
<g filter="url(#filter1_i_731_7)">
<path d="M233.378 290.678L218.906 281.998L220.642 279.104L228.963 284.095C230.317 279.377 229.049 274.307 225.624 270.797C226.689 271.121 227.746 271.558 228.744 272.157C235.141 275.993 237.214 284.282 233.378 290.678ZM254.568 288.157C253.78 287.37 252.897 286.644 251.899 286.045C247.659 283.501 242.568 283.557 238.531 285.76C238.378 286.967 238.127 288.174 237.704 289.337C237.328 290.391 236.862 291.43 236.272 292.414L247.849 299.358L249.585 296.464L241.25 291.464C244.789 288.057 249.859 286.789 254.568 288.157ZM246.457 280.813C249.383 278.495 253 277.221 256.716 277.127C250.369 273.635 242.344 275.729 238.586 281.995C241.045 281.011 243.748 280.605 246.457 280.813ZM242.216 274.039C242.902 270.14 241.978 266.103 239.596 262.923C240.065 266.865 239.296 270.969 237.1 274.63C236.918 274.934 236.701 275.197 236.513 275.478C236.926 276.199 237.262 276.951 237.566 277.724C238.894 276.198 240.495 274.974 242.216 274.039Z" fill="#A3BE8C"/>
</g>
<g filter="url(#filter2_d_731_7)">
<path d="M232.547 318.75L194.297 296.672V338.156L232.547 359.672V338.156L199.5 318.75" stroke="#81A1C1" stroke-width="2"/>
</g>
<g filter="url(#filter3_d_731_7)">
<path d="M293.879 339.796L293.962 284.448C293.959 283.649 293.745 282.864 293.342 282.173C292.938 281.483 292.36 280.91 291.665 280.514L242.284 252.621C241.619 252.235 240.864 252.031 240.095 252.03C239.326 252.028 238.57 252.229 237.903 252.612L188.439 280.292C187.743 280.685 187.163 281.255 186.758 281.944C186.352 282.633 186.136 283.417 186.131 284.216L186.048 339.564C186.051 340.364 186.265 341.149 186.668 341.839C187.071 342.53 187.649 343.102 188.344 343.499L237.725 371.392C238.391 371.777 239.146 371.981 239.915 371.983C240.684 371.984 241.44 371.784 242.106 371.401L291.57 343.721C292.267 343.328 292.847 342.758 293.252 342.069C293.657 341.38 293.873 340.596 293.879 339.796V339.796Z" stroke="#5E81AC" stroke-width="6" stroke-linecap="round" stroke-linejoin="round"/>
<path d="M293.348 282.145L240.51 312.007L186.752 281.916" stroke="#5E81AC" stroke-width="6" stroke-linecap="round" stroke-linejoin="round"/>
<path d="M240.51 312.007L239.915 371.958" stroke="#5E81AC" stroke-width="6" stroke-linecap="round" stroke-linejoin="round"/>
</g>
</g>
<defs>
<filter id="filter0_d_731_7" x="183.048" y="249.03" width="122.914" height="134.953" filterUnits="userSpaceOnUse" color-interpolation-filters="sRGB">
<feFlood flood-opacity="0" result="BackgroundImageFix"/>
<feColorMatrix in="SourceAlpha" type="matrix" values="0 0 0 0 0 0 0 0 0 0 0 0 0 0 0 0 0 0 127 0" result="hardAlpha"/>
<feOffset dx="5" dy="5"/>
<feGaussianBlur stdDeviation="2"/>
<feComposite in2="hardAlpha" operator="out"/>
<feColorMatrix type="matrix" values="0 0 0 0 0 0 0 0 0 0 0 0 0 0 0 0 0 0 0.35 0"/>
<feBlend mode="normal" in2="BackgroundImageFix" result="effect1_dropShadow_731_7"/>
<feBlend mode="normal" in="SourceGraphic" in2="effect1_dropShadow_731_7" result="shape"/>
</filter>
<filter id="filter1_i_731_7" x="218.906" y="262.923" width="37.8098" height="38.4346" filterUnits="userSpaceOnUse" color-interpolation-filters="sRGB">
<feFlood flood-opacity="0" result="BackgroundImageFix"/>
<feBlend mode="normal" in="SourceGraphic" in2="BackgroundImageFix" result="shape"/>
<feColorMatrix in="SourceAlpha" type="matrix" values="0 0 0 0 0 0 0 0 0 0 0 0 0 0 0 0 0 0 127 0" result="hardAlpha"/>
<feOffset dy="2"/>
<feGaussianBlur stdDeviation="1.5"/>
<feComposite in2="hardAlpha" operator="arithmetic" k2="-1" k3="1"/>
<feColorMatrix type="matrix" values="0 0 0 0 0 0 0 0 0 0 0 0 0 0 0 0 0 0 0.25 0"/>
<feBlend mode="normal" in2="shape" result="effect1_innerShadow_731_7"/>
</filter>
<filter id="filter2_d_731_7" x="189.297" y="294.94" width="48.25" height="74.4417" filterUnits="userSpaceOnUse" color-interpolation-filters="sRGB">
<feFlood flood-opacity="0" result="BackgroundImageFix"/>
<feColorMatrix in="SourceAlpha" type="matrix" values="0 0 0 0 0 0 0 0 0 0 0 0 0 0 0 0 0 0 127 0" result="hardAlpha"/>
<feOffset dy="4"/>
<feGaussianBlur stdDeviation="2"/>
<feComposite in2="hardAlpha" operator="out"/>
<feColorMatrix type="matrix" values="0 0 0 0 1 0 0 0 0 1 0 0 0 0 1 0 0 0 0.25 0"/>
<feBlend mode="normal" in2="BackgroundImageFix" result="effect1_dropShadow_731_7"/>
<feBlend mode="normal" in="SourceGraphic" in2="effect1_dropShadow_731_7" result="shape"/>
</filter>
<filter id="filter3_d_731_7" x="179.048" y="249.03" width="121.914" height="133.953" filterUnits="userSpaceOnUse" color-interpolation-filters="sRGB">
<feFlood flood-opacity="0" result="BackgroundImageFix"/>
<feColorMatrix in="SourceAlpha" type="matrix" values="0 0 0 0 0 0 0 0 0 0 0 0 0 0 0 0 0 0 127 0" result="hardAlpha"/>
<feOffset dy="4"/>
<feGaussianBlur stdDeviation="2"/>
<feComposite in2="hardAlpha" operator="out"/>
<feColorMatrix type="matrix" values="0 0 0 0 0 0 0 0 0 0 0 0 0 0 0 0 0 0 0.25 0"/>
<feBlend mode="normal" in2="BackgroundImageFix" result="effect1_dropShadow_731_7"/>
<feBlend mode="normal" in="SourceGraphic" in2="effect1_dropShadow_731_7" result="shape"/>
</filter>
</defs>
</svg>
